HIERARCHY
ROOT Hips
{
  OFFSET 5.72205e-005 65.662 3.42586
  CHANNELS 6 Xposition Yposition Zposition Zrotation Xrotation Yrotation
  JOINT Chest
  {
    OFFSET 0 8.7983 -4.7612
    CHANNELS 3 Zrotation Xrotation Yrotation
    JOINT Chest2
    {
      OFFSET 0 8.0291 0.4195
      CHANNELS 3 Zrotation Xrotation Yrotation
      JOINT Chest3
      {
        OFFSET 0 9.9351 -2.2114
        CHANNELS 3 Zrotation Xrotation Yrotation
        JOINT Neck
        {
          OFFSET 0 22.3885 -0.4656
          CHANNELS 3 Zrotation Xrotation Yrotation
          JOINT Head
          {
            OFFSET -0.0001 12.643 3.4389
            CHANNELS 3 Zrotation Xrotation Yrotation
            End Site
            {
              OFFSET 0.0001 17.6655 0.5274
            }
          }
        }
        JOINT LeftCollar
        {
          OFFSET 2.2603 21.606 7.4023
          CHANNELS 3 Zrotation Xrotation Yrotation
          JOINT LeftShoulder
          {
            OFFSET 13.5163 -1.1332 -5.0146
            CHANNELS 3 Zrotation Xrotation Yrotation
            JOINT LeftElbow
            {
              OFFSET -0.0995 -28.05 -0.2431
              CHANNELS 3 Zrotation Xrotation Yrotation
              JOINT LeftWrist
              {
                OFFSET 0.0679 -23.3996 -0.1402
                CHANNELS 3 Zrotation Xrotation Yrotation
                JOINT LeftFinger1
                {
                  OFFSET 0.7932 -9.069 2.5189
                  CHANNELS 3 Zrotation Xrotation Yrotation
                  JOINT LeftFinger11
                  {
                    OFFSET -0.8272 -3.3923 0.5977
                    CHANNELS 3 Zrotation Xrotation Yrotation
                    JOINT LeftFinger12
                    {
                      OFFSET -0.5649 -2.3158 0.4082
                      CHANNELS 3 Zrotation Xrotation Yrotation
                      End Site
                      {
                        OFFSET -0.4919 -1.6479 0.2673
                      }
                    }
                  }
                }
                JOINT LeftFinger2
                {
                  OFFSET 0.9159 -9.2044 0.2193
                  CHANNELS 3 Zrotation Xrotation Yrotation
                  JOINT LeftFinger21
                  {
                    OFFSET 0.0117 -4.1944 -0.0248
                    CHANNELS 3 Zrotation Xrotation Yrotation
                    JOINT LeftFinger22
                    {
                      OFFSET 0.0071 -2.3249 -0.0142
                      CHANNELS 3 Zrotation Xrotation Yrotation
                      End Site
                      {
                        OFFSET -0.1475 -2.0882 0.0028
                      }
                    }
                  }
                }
                JOINT LeftFinger3
                {
                  OFFSET 0.6113 -8.7231 -2.0637
                  CHANNELS 3 Zrotation Xrotation Yrotation
                  JOINT LeftFinger31
                  {
                    OFFSET -0.1927 -3.8059 -0.2383
                    CHANNELS 3 Zrotation Xrotation Yrotation
                    JOINT LeftFinger32
                    {
                      OFFSET -0.1091 -2.1688 -0.1362
                      CHANNELS 3 Zrotation Xrotation Yrotation
                      End Site
                      {
                        OFFSET -0.2358 -1.9176 -0.0906
                      }
                    }
                  }
                }
                JOINT LeftFinger4
                {
                  OFFSET -0.6151 -8.0947 -3.5641
                  CHANNELS 3 Zrotation Xrotation Yrotation
                  JOINT LeftFinger41
                  {
                    OFFSET -0.4882 -2.341 -0.6462
                    CHANNELS 3 Zrotation Xrotation Yrotation
                    JOINT LeftFinger42
                    {
                      OFFSET -0.3575 -1.7167 -0.4742
                      CHANNELS 3 Zrotation Xrotation Yrotation
                      End Site
                      {
                        OFFSET -0.4187 -1.5237 -0.3496
                      }
                    }
                  }
                }
                JOINT LeftFinger0
                {
                  OFFSET -1.42 -1.8761 1.4223
                  CHANNELS 3 Zrotation Xrotation Yrotation
                  JOINT LeftFinger01
                  {
                    OFFSET -1.1471 -3.4929 2.6334
                    CHANNELS 3 Zrotation Xrotation Yrotation
                    JOINT LeftFinger02
                    {
                      OFFSET -0.823 -2.3 1.6571
                      CHANNELS 3 Zrotation Xrotation Yrotation
                      End Site
                      {
                        OFFSET -0.5822 -1.6914 1.1582
                      }
                    }
                  }
                }
              }
            }
          }
        }
        JOINT RightCollar
        {
          OFFSET -2.2603 21.606 7.4023
          CHANNELS 3 Zrotation Xrotation Yrotation
          JOINT RightShoulder
          {
            OFFSET -13.5187 -1.1334 -5.0155
            CHANNELS 3 Zrotation Xrotation Yrotation
            JOINT RightElbow
            {
              OFFSET 0.0994 -28.0499 -0.2431
              CHANNELS 3 Zrotation Xrotation Yrotation
              JOINT RightWrist
              {
                OFFSET -0.0679 -23.3996 -0.1402
                CHANNELS 3 Zrotation Xrotation Yrotation
                JOINT RightFinger1
                {
                  OFFSET -0.7932 -9.0691 2.5189
                  CHANNELS 3 Zrotation Xrotation Yrotation
                  JOINT RightFinger11
                  {
                    OFFSET 0.8272 -3.3923 0.5977
                    CHANNELS 3 Zrotation Xrotation Yrotation
                    JOINT RightFinger12
                    {
                      OFFSET 0.565 -2.3158 0.4082
                      CHANNELS 3 Zrotation Xrotation Yrotation
                      End Site
                      {
                        OFFSET 0.4919 -1.6479 0.2673
                      }
                    }
                  }
                }
                JOINT RightFinger2
                {
                  OFFSET -0.916 -9.2044 0.2193
                  CHANNELS 3 Zrotation Xrotation Yrotation
                  JOINT RightFinger21
                  {
                    OFFSET -0.0117 -4.1944 -0.0248
                    CHANNELS 3 Zrotation Xrotation Yrotation
                    JOINT RightFinger22
                    {
                      OFFSET -0.0071 -2.3249 -0.0142
                      CHANNELS 3 Zrotation Xrotation Yrotation
                      End Site
                      {
                        OFFSET 0.1475 -2.0882 0.0028
                      }
                    }
                  }
                }
                JOINT RightFinger3
                {
                  OFFSET -0.6113 -8.7231 -2.0637
                  CHANNELS 3 Zrotation Xrotation Yrotation
                  JOINT RightFinger31
                  {
                    OFFSET 0.1927 -3.8059 -0.2383
                    CHANNELS 3 Zrotation Xrotation Yrotation
                    JOINT RightFinger32
                    {
                      OFFSET 0.1091 -2.1688 -0.1362
                      CHANNELS 3 Zrotation Xrotation Yrotation
                      End Site
                      {
                        OFFSET 0.2358 -1.9176 -0.0906
                      }
                    }
                  }
                }
                JOINT RightFinger4
                {
                  OFFSET 0.6151 -8.0947 -3.564
                  CHANNELS 3 Zrotation Xrotation Yrotation
                  JOINT RightFinger41
                  {
                    OFFSET 0.4882 -2.341 -0.6462
                    CHANNELS 3 Zrotation Xrotation Yrotation
                    JOINT RightFinger42
                    {
                      OFFSET 0.3574 -1.7166 -0.4742
                      CHANNELS 3 Zrotation Xrotation Yrotation
                      End Site
                      {
                        OFFSET 0.4187 -1.5237 -0.3496
                      }
                    }
                  }
                }
                JOINT RightFinger0
                {
                  OFFSET 1.4199 -1.8761 1.4221
                  CHANNELS 3 Zrotation Xrotation Yrotation
                  JOINT RightFinger01
                  {
                    OFFSET 1.1472 -3.4929 2.6336
                    CHANNELS 3 Zrotation Xrotation Yrotation
                    JOINT RightFinger02
                    {
                      OFFSET 0.8229 -2.3 1.6571
                      CHANNELS 3 Zrotation Xrotation Yrotation
                      End Site
                      {
                        OFFSET 0.5822 -1.6914 1.1582
                      }
                    }
                  }
                }
              }
            }
          }
        }
      }
    }
  }
  JOINT RightHip
  {
    OFFSET -9.412 3.9771 -0.7758
    CHANNELS 3 Zrotation Xrotation Yrotation
    JOINT RightKnee
    {
      OFFSET -0.7531 -40.938 0
      CHANNELS 3 Zrotation Xrotation Yrotation
      JOINT RightAnkle
      {
        OFFSET 0 -40.1986 0
        CHANNELS 3 Zrotation Xrotation Yrotation
        JOINT RightToe
        {
          OFFSET 0 -4.4182 9.239
          CHANNELS 3 Zrotation Xrotation Yrotation
          End Site
          {
            OFFSET 0 0 6.1981
          }
        }
      }
    }
  }
  JOINT LeftHip
  {
    OFFSET 9.4119 3.9773 -0.7758
    CHANNELS 3 Zrotation Xrotation Yrotation
    JOINT LeftKnee
    {
      OFFSET 0.7532 -40.9383 0
      CHANNELS 3 Zrotation Xrotation Yrotation
      JOINT LeftAnkle
      {
        OFFSET 0 -40.1986 0
        CHANNELS 3 Zrotation Xrotation Yrotation
        JOINT LeftToe
        {
          OFFSET 0 -4.4182 9.239
          CHANNELS 3 Zrotation Xrotation Yrotation
          End Site
          {
            OFFSET 0 0 6.1981
          }
        }
      }
    }
  }
}
MOTION
Frames:	4
Frame Time:	0.0333333
3.96496e-005 2.77084 -13.6723 -1.06277e-014 3.99975 -7.55578e-015 1.43922e-007 17.381 -3.21688e-007 4.28088e-007 34.7622 -7.47719e-007 4.28083e-007 34.762 -7.47713e-007 5.2576e-012 -27.002 3.24831e-011 -0.528309 -22.3138 20.393 1.05234 -9.94842 -6.41289 158.297 -64.3809 150.62 -3.16215 -15.7604 9.53048 0.579465 0.314474 -14.9854 8.21506e-006 1.41515e-005 5.33346e-006 -1.59028e-015 -9.54166e-015 -0 1.05562e-005 -1.44957e-005 -6.14716e-006 8.21506e-006 1.41515e-005 5.33346e-006 -0.0128146 0.00231876 7.4509e-005 1.49372e-005 2.58045e-006 -8.72227e-007 8.21506e-006 1.41515e-005 5.33346e-006 -0.0160559 0.00299908 0.000855495 1.1656e-005 -1.02492e-006 3.36664e-007 8.21506e-006 1.41515e-005 5.33346e-006 -0.0125719 0.00311328 0.00281976 1.26828e-005 -6.29835e-006 -6.11585e-006 8.21506e-006 1.41515e-005 5.33346e-006 -1.59028e-015 -9.54166e-015 -0 1.05562e-005 -1.44957e-005 -6.14716e-006 -1.91153 -9.69038 0.799143 -165.472 -66.5437 -159.98 1.89034 -16.7534 20.3932 -3.72689 -2.80353 0.129697 7.40987e-007 -8.74352e-007 -3.26973e-006 6.04017e-006 1.7164e-006 2.11628e-006 2.09038e-006 -2.98415e-006 -2.33528e-006 7.40987e-007 -8.74352e-007 -3.26973e-006 0.0129683 0.00231642 -8.33619e-005 2.39464e-006 -4.28081e-007 -2.33085e-007 7.40987e-007 -8.74352e-007 -3.26973e-006 0.0163265 0.00303857 -0.000883533 2.09089e-006 -1.27159e-006 -2.33519e-006 7.40987e-007 -8.74352e-007 -3.26973e-006 0.0145778 0.0036841 -0.00326222 8.96837e-007 -6.09116e-006 3.34848e-006 7.40987e-007 -8.74352e-007 -3.26973e-006 6.04017e-006 1.7164e-006 2.11628e-006 2.09038e-006 -2.98415e-006 -2.33528e-006 -32.3607 -52.942 -7.18444 179.768 27.7283 174.154 2.55263 51.1578 -5.19736 -3.72244e-007 -1.7649e-007 -7.68262e-007 32.3231 -52.9532 7.15322 -179.749 27.7191 -174.154 -2.55283 51.1566 5.19763 -9.96232e-006 -5.11994e-006 -1.4545e-006 
3.96496e-005 2.77084 -13.6723 9.78274e-015 3.99975 4.23413e-014 1.43558e-007 17.4276 -3.22057e-007 4.28017e-007 34.8552 -7.48906e-007 4.28012e-007 34.855 -7.48899e-007 5.35025e-012 -27.002 3.28622e-011 -0.484129 -22.6158 21.0115 1.05234 -9.94844 -6.41289 158.788 -63.9625 151.051 -3.18533 -15.8819 9.23913 0.579527 0.314448 -14.9854 -8.82781e-032 -3.18055e-015 -1.59028e-015 -0 0 1.59028e-015 -3.18055e-015 -3.18055e-015 -1.59028e-015 -8.82781e-032 -3.18055e-015 -1.59028e-015 -0.0128498 0.00233335 8.34294e-005 -4.50758e-006 -3.04105e-006 4.58942e-006 -8.82781e-032 -3.18055e-015 -1.59028e-015 -0.0160303 0.00300302 0.000856844 -3.18055e-015 9.54166e-015 7.95139e-016 -8.82781e-032 -3.18055e-015 -1.59028e-015 -0.012585 0.00313203 0.0028298 0 0 -3.18055e-015 -8.82781e-032 -3.18055e-015 -1.59028e-015 -0 0 1.59028e-015 -3.18055e-015 -3.18055e-015 -1.59028e-015 -1.91153 -9.6904 0.799142 -165.759 -66.1075 -160.241 1.90698 -16.7686 20.3935 -3.86145 -2.90544 0.979382 -4.14445e-006 5.96301e-006 4.65252e-006 -1.03611e-006 -1.37667e-006 1.16313e-006 4.4647e-006 -1.27205e-006 -2.56983e-006 -4.14445e-006 5.96301e-006 4.65252e-006 0.0129412 0.00231601 -8.76172e-005 2.29464e-006 -8.92666e-006 2.89702e-006 -4.14445e-006 5.96301e-006 4.65252e-006 0.0163242 0.0030284 -0.000872489 2.7142e-006 2.29008e-006 3.28577e-006 -4.14445e-006 5.96301e-006 4.65252e-006 0.0146312 0.00368533 -0.00327094 2.19626e-006 -1.31551e-005 4.5897e-006 -4.14445e-006 5.96301e-006 4.65252e-006 -1.03611e-006 -1.37667e-006 1.16313e-006 4.4647e-006 -1.27205e-006 -2.56983e-006 -32.3606 -52.942 -7.18437 179.768 27.7282 174.154 2.55262 51.1578 -5.19735 -7.44487e-007 -1.7649e-007 -1.53652e-006 32.3234 -52.9532 7.15347 -179.749 27.7192 -174.154 -2.55281 51.1566 5.19762 -1.86129e-007 1.65415e-006 -3.84127e-007 
3.96496e-005 2.77084 -13.6723 -7.08446e-014 3.99975 -1.45593e-014 1.43194e-007 17.4741 -3.22424e-007 4.27947e-007 34.9482 -7.50091e-007 4.27941e-007 34.948 -7.50083e-007 5.82628e-012 -27.002 3.19505e-011 -0.43636 -22.9171 21.6311 1.05234 -9.94843 -6.41289 159.127 -63.5582 151.343 -3.25635 -16.0464 8.94561 0.579483 0.31444 -14.9854 -3.18055e-015 -3.18055e-015 -2.38542e-015 3.18055e-015 -6.36111e-015 -1.59028e-015 -1.59028e-015 -3.18055e-015 -3.18055e-015 -3.18055e-015 -3.18055e-015 -2.38542e-015 -0.0128215 0.00233858 8.41875e-005 -1.21694e-006 -1.03296e-005 -4.91868e-006 -3.18055e-015 -3.18055e-015 -2.38542e-015 -0.0160521 0.00300494 0.000859683 -8.82781e-032 -3.18055e-015 -1.59028e-015 -3.18055e-015 -3.18055e-015 -2.38542e-015 -0.0126064 0.00314376 0.00283298 4.41391e-032 -3.18055e-015 7.95139e-016 -3.18055e-015 -3.18055e-015 -2.38542e-015 3.18055e-015 -6.36111e-015 -1.59028e-015 -1.59028e-015 -3.18055e-015 -3.18055e-015 -1.91153 -9.69038 0.799143 -165.708 -65.7289 -160.192 2.03178 -16.8838 20.3962 -3.99429 -3.00915 1.82758 -3.08092e-006 6.07727e-007 3.47475e-006 3.08092e-006 -6.07727e-007 -3.47475e-006 6.36111e-015 -9.54166e-015 6.36111e-015 -3.08092e-006 6.07727e-007 3.47475e-006 0.0129619 0.0023179 -8.97551e-005 -1.59028e-015 -3.18055e-015 -4.77083e-015 -3.08092e-006 6.07727e-007 3.47475e-006 0.0163007 0.00302814 -0.00087718 -1.59028e-015 -3.18055e-015 -3.18055e-015 -3.08092e-006 6.07727e-007 3.47475e-006 0.0145579 0.00367461 -0.00325843 6.36111e-015 9.54166e-015 9.54166e-015 -3.08092e-006 6.07727e-007 3.47475e-006 3.08092e-006 -6.07727e-007 -3.47475e-006 6.36111e-015 -9.54166e-015 6.36111e-015 -32.3605 -52.9421 -7.18434 179.768 27.7283 174.154 2.55261 51.1578 -5.19737 -3.72244e-007 -1.7649e-007 -7.68263e-007 32.3231 -52.9532 7.15322 -179.749 27.7191 -174.154 -2.55283 51.1566 5.19763 -9.96232e-006 -5.11994e-006 -1.4545e-006 
3.96496e-005 2.77084 -13.6723 -5.34766e-014 3.99974 9.73194e-014 1.42828e-007 17.5206 -3.22791e-007 4.27877e-007 35.0413 -7.51276e-007 4.27871e-007 35.041 -7.51269e-007 5.77716e-012 -27.002 3.2719e-011 -0.384992 -23.2175 22.2516 1.05234 -9.94846 -6.41289 159.632 -63.1329 151.785 -3.26674 -16.1547 8.6544 0.579484 0.314442 -14.9854 -3.18055e-015 1.59028e-014 3.18055e-015 -1.59028e-015 6.36111e-015 3.18055e-015 -4.77083e-015 6.36111e-015 5.56597e-015 -3.18055e-015 1.59028e-014 3.18055e-015 -0.0128037 0.00231853 8.46125e-005 1.59028e-015 0 -0 -3.18055e-015 1.59028e-014 3.18055e-015 -0.0160687 0.00299436 0.000854463 3.18055e-015 -3.18055e-015 3.18055e-015 -3.18055e-015 1.59028e-014 3.18055e-015 -0.0125755 0.00312401 0.0028226 -1.86669e-006 -6.10656e-006 -4.00022e-006 -3.18055e-015 1.59028e-014 3.18055e-015 -1.59028e-015 6.36111e-015 3.18055e-015 -4.77083e-015 6.36111e-015 5.56597e-015 -1.91153 -9.69039 0.799142 -167.651 -64.9786 -161.96 1.48267 -16.3756 20.3868 -4.12541 -3.11463 2.67417 7.66587e-007 -4.89552e-006 -4.97896e-006 7.00423e-006 1.58103e-005 -6.51321e-006 -1.97721e-006 -1.41136e-005 9.81198e-006 7.66587e-007 -4.89552e-006 -4.97896e-006 0.012935 0.00234019 -9.2293e-005 6.90034e-006 2.15909e-006 -4.72934e-006 7.66587e-007 -4.89552e-006 -4.97896e-006 0.0163525 0.00305258 -0.000877455 3.40605e-006 -1.58546e-007 -1.41643e-006 7.66587e-007 -4.89552e-006 -4.97896e-006 0.0145856 0.00368914 -0.00326278 4.87655e-006 6.5698e-006 -2.3103e-006 7.66587e-007 -4.89552e-006 -4.97896e-006 7.00423e-006 1.58103e-005 -6.51321e-006 -1.97721e-006 -1.41136e-005 9.81198e-006 -32.3603 -52.9421 -7.18412 179.768 27.7281 174.154 2.55263 51.1578 -5.19737 -3.81598e-006 -2.66354e-007 -1.50145e-006 32.3228 -52.9533 7.15297 -179.749 27.719 -174.154 -2.55281 51.1566 5.1976 2.14097e-006 1.81864e-006 -1.95566e-006 
